<svg xmlns="http://www.w3.org/2000/svg" width="22.613" height="22.613" viewBox="0 0 22.613 22.613">
  <path id="Icon_open-magnifying-glass" data-name="Icon open-magnifying-glass" d="M9.8-.017a9.8,9.8,0,0,0,0,19.609,9.69,9.69,0,0,0,4.65-1.149,2.8,2.8,0,0,0,.364.364l2.8,2.8a2.857,2.857,0,1,0,4.034-4.034l-2.8-2.8a2.8,2.8,0,0,0-.448-.364,9.673,9.673,0,0,0,1.233-4.65,9.815,9.815,0,0,0-9.8-9.8Zm0,2.8a6.97,6.97,0,0,1,7,7,7.024,7.024,0,0,1-1.849,4.818l-.084.084a2.8,2.8,0,0,0-.364.364,7.01,7.01,0,0,1-4.734,1.765,7,7,0,0,1,0-14.006Z" transform="translate(0 0.045)" fill="#1e252b"/>
</svg>
