<svg xmlns="http://www.w3.org/2000/svg" width="23.698" height="23.698" viewBox="0 0 23.698 23.698">
  <path id="Icon_material-person-outline" data-name="Icon material-person-outline" d="M17.849,8.814a3.11,3.11,0,1,1-3.11,3.11,3.11,3.11,0,0,1,3.11-3.11m0,13.33c4.4,0,9.035,2.162,9.035,3.11v1.629H8.814V25.255c0-.948,4.636-3.11,9.035-3.11M17.849,6a5.924,5.924,0,1,0,5.924,5.924A5.923,5.923,0,0,0,17.849,6Zm0,13.33C13.894,19.33,6,21.315,6,25.255V29.7H29.7V25.255C29.7,21.315,21.8,19.33,17.849,19.33Z" transform="translate(-6 -6)" fill="#1e252b"/>
</svg>
