<svg xmlns="http://www.w3.org/2000/svg" width="21.314" height="17.311" viewBox="0 0 21.314 17.311">
  <path id="Icon_awesome-twitter" data-name="Icon awesome-twitter" d="M19.123,7.695c.014.189.014.379.014.568A12.343,12.343,0,0,1,6.708,20.691,12.344,12.344,0,0,1,0,18.73a9.037,9.037,0,0,0,1.055.054,8.748,8.748,0,0,0,5.423-1.866,4.376,4.376,0,0,1-4.084-3.029,5.509,5.509,0,0,0,.825.068,4.62,4.62,0,0,0,1.15-.149,4.369,4.369,0,0,1-3.5-4.287V9.467a4.4,4.4,0,0,0,1.974.554A4.375,4.375,0,0,1,1.488,4.179,12.417,12.417,0,0,0,10.495,8.75a4.931,4.931,0,0,1-.108-1,4.372,4.372,0,0,1,7.56-2.989,8.6,8.6,0,0,0,2.772-1.055A4.356,4.356,0,0,1,18.8,6.113a8.757,8.757,0,0,0,2.515-.676,9.39,9.39,0,0,1-2.191,2.258Z" transform="translate(0 -3.381)"/>
</svg>
