<svg xmlns="http://www.w3.org/2000/svg" width="17.228" height="17.225" viewBox="0 0 17.228 17.225">
  <path id="Icon_awesome-instagram" data-name="Icon awesome-instagram" d="M8.611,6.434a4.416,4.416,0,1,0,4.416,4.416A4.409,4.409,0,0,0,8.611,6.434Zm0,7.287a2.871,2.871,0,1,1,2.871-2.871,2.876,2.876,0,0,1-2.871,2.871Zm5.627-7.468a1.03,1.03,0,1,1-1.03-1.03A1.028,1.028,0,0,1,14.238,6.253ZM17.163,7.3A5.1,5.1,0,0,0,15.771,3.69,5.131,5.131,0,0,0,12.162,2.3c-1.422-.081-5.685-.081-7.107,0A5.124,5.124,0,0,0,1.447,3.686,5.114,5.114,0,0,0,.055,7.295c-.081,1.422-.081,5.685,0,7.107A5.1,5.1,0,0,0,1.447,18.01,5.138,5.138,0,0,0,5.056,19.4c1.422.081,5.685.081,7.107,0a5.1,5.1,0,0,0,3.609-1.391A5.131,5.131,0,0,0,17.163,14.4c.081-1.422.081-5.681,0-7.1Zm-1.837,8.629a2.907,2.907,0,0,1-1.637,1.637c-1.134.45-3.824.346-5.077.346s-3.947.1-5.077-.346A2.907,2.907,0,0,1,1.9,15.927c-.45-1.134-.346-3.824-.346-5.077S1.45,6.9,1.9,5.773A2.907,2.907,0,0,1,3.534,4.135c1.134-.45,3.824-.346,5.077-.346s3.947-.1,5.077.346a2.907,2.907,0,0,1,1.637,1.637c.45,1.134.346,3.824.346,5.077S15.775,14.8,15.325,15.927Z" transform="translate(0.005 -2.238)"/>
</svg>
