<svg id="Icon_feather-shopping-cart" data-name="Icon feather-shopping-cart" xmlns="http://www.w3.org/2000/svg" width="28.909" height="27.731" viewBox="0 0 28.909 27.731">
  <path id="Caminho_1" data-name="Caminho 1" d="M14.355,31.178A1.178,1.178,0,1,1,13.178,30,1.178,1.178,0,0,1,14.355,31.178Z" transform="translate(-2.256 -6.124)" fill="none" stroke="#1e252b" stroke-linecap="round" stroke-linejoin="round" stroke-width="3"/>
  <path id="Caminho_2" data-name="Caminho 2" d="M30.855,31.178A1.178,1.178,0,1,1,29.678,30,1.178,1.178,0,0,1,30.855,31.178Z" transform="translate(-5.802 -6.124)" fill="none" stroke="#1e252b" stroke-linecap="round" stroke-linejoin="round" stroke-width="3"/>
  <path id="Caminho_3" data-name="Caminho 3" d="M1.5,1.5H6.211L9.367,17.269a2.355,2.355,0,0,0,2.355,1.9H23.169a2.355,2.355,0,0,0,2.355-1.9l1.884-9.881H7.388" fill="none" stroke="#1e252b" stroke-linecap="round" stroke-linejoin="round" stroke-width="3"/>
</svg>
